<?xml version="1.0" encoding="utf-8"?>
<!-- Generator: Adobe Illustrator 25.2.1, SVG Export Plug-In . SVG Version: 6.00 Build 0)  -->
<svg version="1.1" id="Слой_1" xmlns="http://www.w3.org/2000/svg" xmlns:xlink="http://www.w3.org/1999/xlink" x="0px" y="0px"
	 viewBox="0 0 28 28" style="enable-background:new 0 0 28 28;" xml:space="preserve">
<style type="text/css">
	.st0{fill:#333333;}
	.st1{fill:#FFFFFF;}
</style>
<circle class="st0" cx="14" cy="14" r="14"/>
<path class="st1" d="M9.1,17.5l8.5-8.5c0.4-0.4,1-0.4,1.4,0l0,0c0.4,0.4,0.4,1,0,1.4l-8.5,8.5c-0.4,0.4-1,0.4-1.4,0l0,0
	C8.7,18.6,8.7,17.9,9.1,17.5z"/>
<path class="st1" d="M10.5,9.1l8.5,8.5c0.4,0.4,0.4,1,0,1.4l0,0c-0.4,0.4-1,0.4-1.4,0l-8.5-8.5c-0.4-0.4-0.4-1,0-1.4l0,0
	C9.4,8.7,10.1,8.7,10.5,9.1z"/>
</svg>
